<?xml version="1.0" encoding="UTF-8"?>
<svg version="1.1" xmlns="http://www.w3.org/2000/svg" width="512" height="512">
<path d="M0 0 C8.74849762 6.22405552 13.99143617 15.04697095 16.48046875 25.42578125 C17.09425572 31.29913303 16.86131413 37.21968429 16.73046875 43.11328125 C16.71035889 44.70114917 16.6921161 46.28904188 16.67578125 47.87695312 C16.63217231 51.72718631 16.56339944 55.57620254 16.48046875 59.42578125 C17.03508789 59.15838135 17.58970703 58.89098145 18.16113281 58.61547852 C20.68241007 57.4025554 23.20639263 56.19536845 25.73046875 54.98828125 C27.03951172 54.35696289 27.03951172 54.35696289 28.375 53.71289062 C29.21933594 53.31005859 30.06367188 52.90722656 30.93359375 52.4921875 C31.70864258 52.12037354 32.48369141 51.74855957 33.28222656 51.36547852 C41.96344297 47.65446097 54.65401031 48.03371268 63.54296875 50.98828125 C75.07386833 56.01094303 82.77981437 64.54625916 87.43075562 76.02966309 C89.20631569 81.7741009 89.09633959 87.31889294 88.96875 93.28515625 C88.96167526 94.55554749 88.95460052 95.82593872 88.9473114 97.13482666 C88.9242639 100.4694342 88.87956439 103.80223929 88.8237915 107.13635254 C88.77211512 110.5555893 88.74969558 113.97501434 88.72460938 117.39453125 C88.66980459 124.07210059 88.58637804 130.7488372 88.48046875 137.42578125 C89.18631607 137.41467819 89.89216339 137.40357513 90.61940002 137.39213562 C97.33985588 137.29107588 104.06019519 137.21538743 110.78122044 137.16672039 C114.23493476 137.14085668 117.6880105 137.1058988 121.14135742 137.04858398 C140.80700288 136.73093943 156.61584697 136.53217046 172.48046875 149.42578125 C173.31320312 150.05226562 174.1459375 150.67875 175.00390625 151.32421875 C183.79450589 158.78374967 190.3966648 171.08817445 192.48046875 182.42578125 C192.75313704 186.95700561 192.71312395 191.47764859 192.67578125 196.015625 C192.67153641 197.96511803 192.67153641 197.96511803 192.66720581 199.95399475 C192.6596153 203.3882738 192.64000698 206.82238032 192.61779785 210.2565918 C192.59723996 213.76934476 192.58818295 217.28212594 192.578125 220.79492188 C192.55675611 227.67194531 192.52267639 234.54885497 192.48046875 241.42578125 C193.09571411 241.41848495 193.71095947 241.41118866 194.34484863 241.40367126 C195.1533728 241.39799637 195.96189697 241.39232147 196.79492188 241.38647461 C197.59579224 241.37917831 198.3966626 241.37188202 199.22180176 241.36436462 C208.89003126 241.62725864 217.04418472 247.77866392 223.453125 254.4921875 C230.87446646 263.30010655 233.10309046 272.73887325 233.01171875 284.05078125 C233.01554565 285.11893066 233.01937256 286.18708008 233.02331543 287.28759766 C233.02601845 289.52963207 233.01877116 291.77169891 233.00195312 294.01367188 C232.98052158 297.41739167 233.00181143 300.81900098 233.02734375 304.22265625 C233.02470019 306.41536918 233.01957463 308.6080808 233.01171875 310.80078125 C233.01981567 311.80318848 233.0279126 312.8055957 233.03625488 313.83837891 C232.88928709 325.08305843 229.26201297 334.27442107 221.48046875 342.42578125 C214.53991173 349.05145478 206.55620653 353.55401766 196.79492188 353.46508789 C195.98639771 353.45941299 195.17787354 353.4537381 194.34484863 353.44789124 C193.72960327 353.44059494 193.11435791 353.43329865 192.48046875 353.42578125 C192.4893512 354.13829041 192.49823364 354.85079956 192.50738525 355.5848999 C192.58804828 362.35049434 192.64869309 369.11601549 192.68771744 375.88196945 C192.70845603 379.35918703 192.73651603 382.83600221 192.78222656 386.31298828 C192.83462599 390.32458007 192.85352705 394.33575948 192.87109375 398.34765625 C192.89173889 399.5762738 192.91238403 400.80489136 192.93365479 402.07073975 C192.93725711 416.1440478 187.95524005 430.24956476 178.29296875 440.7421875 C168.14120527 450.17195056 155.07538469 457.66498536 140.93669605 457.68305016 C139.65523632 457.68949905 138.37377658 457.69594794 137.05348474 457.70259225 C135.64387651 457.6996504 134.23426867 457.696515 132.82466125 457.69320679 C131.31749293 457.69694542 129.81032655 457.70154779 128.30316323 457.70693743 C124.16914771 457.71915674 120.03521318 457.71890822 115.90118372 457.71654868 C111.43953687 457.71614024 106.9779159 457.72718233 102.51628113 457.73666382 C93.77750229 457.75326935 85.03875043 457.75877318 76.29995713 457.75988857 C69.19495946 457.76083934 62.08997068 457.76495106 54.98497581 457.77128983 C34.8335809 457.78890165 14.68220728 457.79812888 -5.46919539 457.79662888 C-7.0983902 457.79650901 -7.0983902 457.79650901 -8.76049805 457.79638672 C-9.84795682 457.79630496 -10.93541559 457.7962232 -12.05582765 457.79613896 C-29.67506372 457.79532626 -47.29421426 457.81446005 -64.91342559 457.84266345 C-83.01198985 457.87140513 -101.11051241 457.88520301 -119.20910007 457.8834759 C-129.36711 457.8828124 -139.52503029 457.88828695 -149.68301964 457.909832 C-158.33280311 457.92806076 -166.98245631 457.93237727 -175.63225069 457.91881315 C-180.04288254 457.91229184 -184.45326458 457.91213594 -188.86387253 457.92951965 C-192.90754777 457.94529276 -196.95077603 457.94234386 -200.99444065 457.92495139 C-202.45136866 457.92189076 -203.90833038 457.92547833 -205.3652186 457.93667154 C-220.58408131 458.0457826 -235.39159623 453.77695522 -246.8359375 443.23828125 C-257.43256891 431.83030683 -263.83719595 418.52436666 -263.79368591 402.95324707 C-263.79892259 402.01863254 -263.80415927 401.08401801 -263.80955464 400.12108183 C-263.82451784 396.99929731 -263.82525899 393.87767725 -263.82592773 390.75585938 C-263.83355189 388.51318079 -263.84197983 386.27050482 -263.85115051 384.02783203 C-263.87308195 377.9406516 -263.88189307 371.8535214 -263.88697696 365.76630592 C-263.89062329 361.95881685 -263.89686492 358.15134088 -263.90397835 354.34385681 C-263.92343167 343.78364541 -263.93994565 333.22344491 -263.94285488 322.66321564 C-263.94304245 321.98818433 -263.94323002 321.31315302 -263.94342327 320.61766621 C-263.94378951 319.24944019 -263.9441532 317.88121417 -263.94451439 316.51298815 C-263.9446972 315.83387784 -263.94488001 315.15476753 -263.94506836 314.45507812 C-263.94524891 313.77512989 -263.94542946 313.09518166 -263.94561548 312.39462894 C-263.94915234 301.39262479 -263.97614622 290.39081694 -264.01356625 279.38888079 C-264.05175576 268.06923536 -264.07057319 256.74971871 -264.07131439 245.42999601 C-264.07210539 239.08417246 -264.08076221 232.73860212 -264.10931206 226.39283752 C-264.13559458 220.41730677 -264.13764087 214.44223726 -264.12165642 208.4666748 C-264.11984981 206.28310638 -264.12646067 204.09951081 -264.14247513 201.91600037 C-264.26004994 184.8325467 -262.68132428 171.15953106 -251.51953125 157.42578125 C-250.89304688 156.59304687 -250.2665625 155.7603125 -249.62109375 154.90234375 C-241.89909467 145.80244149 -229.97916705 140.11566361 -218.51953125 137.42578125 C-215.99809406 137.45513131 -213.47688356 137.51919998 -210.95703125 137.61328125 C-202.90818672 137.4858045 -198.93009274 134.24670845 -193.4609375 128.63378906 C-192.33473196 127.44766527 -191.21414003 126.25618269 -190.09960938 125.05908203 C-187.88632718 122.77124862 -185.45893293 120.82647867 -182.95703125 118.86328125 C-178.80852868 115.54326084 -174.89425889 112.05528733 -171.01953125 108.42578125 C-167.14480361 104.79627517 -163.23053382 101.30830166 -159.08203125 97.98828125 C-154.70701153 94.47934986 -150.59932216 90.7673362 -146.51953125 86.92578125 C-141.6064501 82.29959535 -136.56831404 77.95307438 -131.296875 73.734375 C-128.09510326 71.07298667 -125.05718207 68.27115879 -122.01953125 65.42578125 C-117.28088982 60.98743219 -112.39833546 56.83435672 -107.33203125 52.76953125 C-104.1210332 50.09369954 -101.06923988 47.28219849 -98.01953125 44.42578125 C-93.28086661 39.98745451 -88.39833799 35.83435875 -83.33203125 31.76953125 C-80.12102934 29.09369633 -77.06928492 26.28215556 -74.01953125 23.42578125 C-69.21710351 18.92894326 -64.28064184 14.69362101 -59.13671875 10.5859375 C-56.46728053 8.38265491 -53.97157685 6.05324103 -51.45703125 3.67578125 C-36.83153366 -9.66677795 -16.47762374 -10.2953215 0 0 Z " fill="#74553F" transform="translate(271.51953125,46.57421875)"/>
<path d="M0 0 C8.74849762 6.22405552 13.99143617 15.04697095 16.48046875 25.42578125 C17.09425572 31.29913303 16.86131413 37.21968429 16.73046875 43.11328125 C16.71035889 44.70114917 16.6921161 46.28904188 16.67578125 47.87695312 C16.63217231 51.72718631 16.56339944 55.57620254 16.48046875 59.42578125 C17.03508789 59.15838135 17.58970703 58.89098145 18.16113281 58.61547852 C20.68241007 57.4025554 23.20639263 56.19536845 25.73046875 54.98828125 C27.03951172 54.35696289 27.03951172 54.35696289 28.375 53.71289062 C29.21933594 53.31005859 30.06367188 52.90722656 30.93359375 52.4921875 C31.70864258 52.12037354 32.48369141 51.74855957 33.28222656 51.36547852 C41.96344297 47.65446097 54.65401031 48.03371268 63.54296875 50.98828125 C75.07386833 56.01094303 82.77981437 64.54625916 87.43075562 76.02966309 C89.20631569 81.7741009 89.09633959 87.31889294 88.96875 93.28515625 C88.96167526 94.55554749 88.95460052 95.82593872 88.9473114 97.13482666 C88.9242639 100.4694342 88.87956439 103.80223929 88.8237915 107.13635254 C88.77211512 110.5555893 88.74969558 113.97501434 88.72460938 117.39453125 C88.66980459 124.07210059 88.58637804 130.7488372 88.48046875 137.42578125 C89.18631607 137.41467819 89.89216339 137.40357513 90.61940002 137.39213562 C97.33985588 137.29107588 104.06019519 137.21538743 110.78122044 137.16672039 C114.23493476 137.14085668 117.6880105 137.1058988 121.14135742 137.04858398 C140.80700288 136.73093943 156.61584697 136.53217046 172.48046875 149.42578125 C173.31320312 150.05226562 174.1459375 150.67875 175.00390625 151.32421875 C183.79450589 158.78374967 190.3966648 171.08817445 192.48046875 182.42578125 C192.75313704 186.95700561 192.71312395 191.47764859 192.67578125 196.015625 C192.67153641 197.96511803 192.67153641 197.96511803 192.66720581 199.95399475 C192.6596153 203.3882738 192.64000698 206.82238032 192.61779785 210.2565918 C192.59723996 213.76934476 192.58818295 217.28212594 192.578125 220.79492188 C192.55675611 227.67194531 192.52267639 234.54885497 192.48046875 241.42578125 C193.09571411 241.41848495 193.71095947 241.41118866 194.34484863 241.40367126 C195.1533728 241.39799637 195.96189697 241.39232147 196.79492188 241.38647461 C197.59579224 241.37917831 198.3966626 241.37188202 199.22180176 241.36436462 C208.89003126 241.62725864 217.04418472 247.77866392 223.453125 254.4921875 C230.87446646 263.30010655 233.10309046 272.73887325 233.01171875 284.05078125 C233.01554565 285.11893066 233.01937256 286.18708008 233.02331543 287.28759766 C233.02601845 289.52963207 233.01877116 291.77169891 233.00195312 294.01367188 C232.98052158 297.41739167 233.00181143 300.81900098 233.02734375 304.22265625 C233.02470019 306.41536918 233.01957463 308.6080808 233.01171875 310.80078125 C233.01981567 311.80318848 233.0279126 312.8055957 233.03625488 313.83837891 C232.88928709 325.08305843 229.26201297 334.27442107 221.48046875 342.42578125 C214.53991173 349.05145478 206.55620653 353.55401766 196.79492188 353.46508789 C195.98639771 353.45941299 195.17787354 353.4537381 194.34484863 353.44789124 C193.72960327 353.44059494 193.11435791 353.43329865 192.48046875 353.42578125 C192.4893512 354.13829041 192.49823364 354.85079956 192.50738525 355.5848999 C192.58804828 362.35049434 192.64869309 369.11601549 192.68771744 375.88196945 C192.70845603 379.35918703 192.73651603 382.83600221 192.78222656 386.31298828 C192.83462599 390.32458007 192.85352705 394.33575948 192.87109375 398.34765625 C192.89173889 399.5762738 192.91238403 400.80489136 192.93365479 402.07073975 C192.93725711 416.1440478 187.95524005 430.24956476 178.29296875 440.7421875 C168.14120527 450.17195056 155.07538469 457.66498536 140.93669605 457.68305016 C139.65523632 457.68949905 138.37377658 457.69594794 137.05348474 457.70259225 C135.64387651 457.6996504 134.23426867 457.696515 132.82466125 457.69320679 C131.31749293 457.69694542 129.81032655 457.70154779 128.30316323 457.70693743 C124.16914771 457.71915674 120.03521318 457.71890822 115.90118372 457.71654868 C111.43953687 457.71614024 106.9779159 457.72718233 102.51628113 457.73666382 C93.77750229 457.75326935 85.03875043 457.75877318 76.29995713 457.75988857 C69.19495946 457.76083934 62.08997068 457.76495106 54.98497581 457.77128983 C34.8335809 457.78890165 14.68220728 457.79812888 -5.46919539 457.79662888 C-7.0983902 457.79650901 -7.0983902 457.79650901 -8.76049805 457.79638672 C-9.84795682 457.79630496 -10.93541559 457.7962232 -12.05582765 457.79613896 C-29.67506372 457.79532626 -47.29421426 457.81446005 -64.91342559 457.84266345 C-83.01198985 457.87140513 -101.11051241 457.88520301 -119.20910007 457.8834759 C-129.36711 457.8828124 -139.52503029 457.88828695 -149.68301964 457.909832 C-158.33280311 457.92806076 -166.98245631 457.93237727 -175.63225069 457.91881315 C-180.04288254 457.91229184 -184.45326458 457.91213594 -188.86387253 457.92951965 C-192.90754777 457.94529276 -196.95077603 457.94234386 -200.99444065 457.92495139 C-202.45136866 457.92189076 -203.90833038 457.92547833 -205.3652186 457.93667154 C-220.58408131 458.0457826 -235.39159623 453.77695522 -246.8359375 443.23828125 C-257.43256891 431.83030683 -263.83719595 418.52436666 -263.79368591 402.95324707 C-263.79892259 402.01863254 -263.80415927 401.08401801 -263.80955464 400.12108183 C-263.82451784 396.99929731 -263.82525899 393.87767725 -263.82592773 390.75585938 C-263.83355189 388.51318079 -263.84197983 386.27050482 -263.85115051 384.02783203 C-263.87308195 377.9406516 -263.88189307 371.8535214 -263.88697696 365.76630592 C-263.89062329 361.95881685 -263.89686492 358.15134088 -263.90397835 354.34385681 C-263.92343167 343.78364541 -263.93994565 333.22344491 -263.94285488 322.66321564 C-263.94304245 321.98818433 -263.94323002 321.31315302 -263.94342327 320.61766621 C-263.94378951 319.24944019 -263.9441532 317.88121417 -263.94451439 316.51298815 C-263.9446972 315.83387784 -263.94488001 315.15476753 -263.94506836 314.45507812 C-263.94524891 313.77512989 -263.94542946 313.09518166 -263.94561548 312.39462894 C-263.94915234 301.39262479 -263.97614622 290.39081694 -264.01356625 279.38888079 C-264.05175576 268.06923536 -264.07057319 256.74971871 -264.07131439 245.42999601 C-264.07210539 239.08417246 -264.08076221 232.73860212 -264.10931206 226.39283752 C-264.13559458 220.41730677 -264.13764087 214.44223726 -264.12165642 208.4666748 C-264.11984981 206.28310638 -264.12646067 204.09951081 -264.14247513 201.91600037 C-264.26004994 184.8325467 -262.68132428 171.15953106 -251.51953125 157.42578125 C-250.89304688 156.59304687 -250.2665625 155.7603125 -249.62109375 154.90234375 C-241.89909467 145.80244149 -229.97916705 140.11566361 -218.51953125 137.42578125 C-215.99809406 137.45513131 -213.47688356 137.51919998 -210.95703125 137.61328125 C-202.90818672 137.4858045 -198.93009274 134.24670845 -193.4609375 128.63378906 C-192.33473196 127.44766527 -191.21414003 126.25618269 -190.09960938 125.05908203 C-187.88632718 122.77124862 -185.45893293 120.82647867 -182.95703125 118.86328125 C-178.80852868 115.54326084 -174.89425889 112.05528733 -171.01953125 108.42578125 C-167.14480361 104.79627517 -163.23053382 101.30830166 -159.08203125 97.98828125 C-154.70701153 94.47934986 -150.59932216 90.7673362 -146.51953125 86.92578125 C-141.6064501 82.29959535 -136.56831404 77.95307438 -131.296875 73.734375 C-128.09510326 71.07298667 -125.05718207 68.27115879 -122.01953125 65.42578125 C-117.28088982 60.98743219 -112.39833546 56.83435672 -107.33203125 52.76953125 C-104.1210332 50.09369954 -101.06923988 47.28219849 -98.01953125 44.42578125 C-93.28086661 39.98745451 -88.39833799 35.83435875 -83.33203125 31.76953125 C-80.12102934 29.09369633 -77.06928492 26.28215556 -74.01953125 23.42578125 C-69.21710351 18.92894326 -64.28064184 14.69362101 -59.13671875 10.5859375 C-56.46728053 8.38265491 -53.97157685 6.05324103 -51.45703125 3.67578125 C-36.83153366 -9.66677795 -16.47762374 -10.2953215 0 0 Z M-240.20703125 169.5703125 C-245.65499463 177.27204645 -247.82163606 185.11656054 -247.78695679 194.44984436 C-247.7914879 195.34826363 -247.79601901 196.24668289 -247.80068743 197.17232698 C-247.81332967 200.17751859 -247.81171114 203.18252891 -247.81005859 206.18774414 C-247.81604412 208.344851 -247.82284972 210.50195572 -247.83041382 212.65905762 C-247.84808272 218.51683785 -247.8527697 224.37455964 -247.85404539 230.23236394 C-247.85546752 233.89527127 -247.85973839 237.55816378 -247.86503983 241.22106743 C-247.88354599 254.00928565 -247.89171007 266.79746219 -247.89013672 279.58569336 C-247.88893651 291.48942399 -247.91001369 303.39297294 -247.94162405 315.29665762 C-247.96782089 325.52790363 -247.97850252 335.75909046 -247.9772259 345.99036974 C-247.97671709 352.09577248 -247.98235502 358.20101391 -248.003582 364.30638313 C-248.0230206 370.05449723 -248.02305028 375.80229715 -248.00854874 381.55042267 C-248.00646623 383.65258432 -248.01112798 385.75476592 -248.02326965 387.85689354 C-248.10942805 403.81593697 -247.29868628 418.22056344 -235.63671875 430.390625 C-224.26744796 440.93506634 -211.8803856 441.72966782 -196.91383362 441.69320679 C-195.44873619 441.69694891 -193.98364075 441.70155266 -192.51854843 441.70693743 C-188.51479681 441.71911287 -184.51112909 441.71891346 -180.5073632 441.71654868 C-176.18075848 441.71613914 -171.85418018 441.72719253 -167.52758789 441.73666382 C-159.0602697 441.75324352 -150.59297937 441.75877194 -142.1256463 441.75988857 C-135.24191689 441.76084024 -128.35819665 441.76495646 -121.47447014 441.77128983 C-101.94444668 441.78889197 -82.41444517 441.79813 -62.88441373 441.79662888 C-61.30665457 441.79650901 -61.30665457 441.79650901 -59.69702148 441.79638672 C-58.64389367 441.79630496 -57.59076586 441.7962232 -56.50572508 441.79613896 C-39.43242452 441.79532578 -22.35921213 441.8144742 -5.28593708 441.84266345 C12.25788143 441.87140047 29.80165694 441.88520338 47.34549958 441.8834759 C57.18988367 441.88281241 67.03417527 441.88828727 76.87853813 441.909832 C85.25818698 441.92805427 93.63770136 441.93238232 102.01736145 441.91881315 C106.29017508 441.91228953 110.56273081 441.91214447 114.83551979 441.92951965 C118.75196568 441.94528172 122.66794985 441.94235516 126.58438469 441.92495139 C127.99611811 441.92188843 129.40788626 441.92548727 130.8195787 441.93667154 C144.37956477 442.03693085 155.22692155 438.84731765 165.41796875 429.68359375 C172.82595312 421.98823068 176.61930972 411.60014748 176.59399414 400.99291992 C176.59388084 399.40183662 176.59388084 399.40183662 176.59376526 397.77861023 C176.58860397 396.64510635 176.58344269 395.51160248 176.578125 394.34375 C176.57671005 393.17443436 176.5752951 392.00511871 176.57383728 390.80036926 C176.56824668 387.07131374 176.55569584 383.34231858 176.54296875 379.61328125 C176.53795254 377.08268316 176.53338984 374.55208413 176.52929688 372.02148438 C176.51828032 365.82289612 176.50155148 359.624343 176.48046875 353.42578125 C175.38767609 353.42213562 174.29488342 353.41848999 173.16897583 353.41473389 C162.84118123 353.37769944 152.51368246 353.31983462 142.18611336 353.24187851 C136.8773187 353.20246713 131.56868834 353.17024754 126.25976562 353.15478516 C121.13077244 353.13957686 116.00223116 353.10505725 110.87343979 353.05747223 C108.9224021 353.04270141 106.97129987 353.03474272 105.02020645 353.0338974 C85.4373467 353.01688909 85.4373467 353.01688909 77.48046875 348.42578125 C76.40796875 347.82765625 75.33546875 347.22953125 74.23046875 346.61328125 C63.58989941 338.149192 59.05795132 325.63925178 57.48046875 312.42578125 C57.1665131 307.36254552 57.09031029 302.30977987 57.10546875 297.23828125 C57.10628448 296.21172424 57.10628448 296.21172424 57.1071167 295.16442871 C57.16295884 279.88691374 58.54582523 264.12880412 69.43359375 252.3046875 C81.4539216 241.2707606 95.7005517 242.10813111 111.05078125 242.01171875 C112.94221824 241.99298271 114.83364708 241.97340753 116.72506714 241.95303345 C121.67329074 241.90196337 126.62154136 241.86220404 131.56988525 241.82489014 C136.63129218 241.78469197 141.69258914 241.73367219 146.75390625 241.68359375 C156.66268288 241.5871324 166.57152197 241.50263337 176.48046875 241.42578125 C176.55708472 234.23997903 176.60930431 227.05428375 176.64526367 219.86816406 C176.66026853 217.42801985 176.6806789 214.98790223 176.70678711 212.54785156 C176.74353726 209.02271933 176.76027877 205.49794637 176.7734375 201.97265625 C176.78892136 200.89715515 176.80440521 199.82165405 176.82035828 198.71356201 C176.82310122 186.12208872 174.15097595 174.56569451 165.37109375 165.16796875 C160.87888497 160.9700771 156.26418408 157.58133567 150.48046875 155.42578125 C149.57859675 155.08516128 148.67672476 154.7445413 147.74752331 154.39359951 C141.69000009 152.69890913 135.32696203 153.13979974 129.09040833 153.15162659 C127.61211317 153.14717128 126.1338204 153.14185628 124.65553111 153.13575786 C120.60133043 153.12160248 116.5472065 153.1199141 112.49298465 153.12035477 C108.11722476 153.11870439 103.74149629 153.10563376 99.36575317 153.09416199 C89.80161783 153.07133019 80.2375047 153.06339338 70.6733458 153.05833554 C64.69897714 153.0550765 58.72461489 153.04855277 52.75024986 153.04133415 C36.20147948 153.02177084 19.65271507 153.00536498 3.10393238 153.00245762 C2.04532453 153.00227005 0.98671668 153.00208248 -0.10397019 153.00188923 C-2.24992454 153.00152298 -4.39587889 153.00115928 -6.54183324 153.00079811 C-7.60705415 153.0006153 -8.67227506 153.00043249 -9.76977539 153.00024414 C-10.83629986 153.00006359 -11.90282433 152.99988304 -13.00166772 152.99969702 C-30.28143034 152.99615571 -47.56106833 152.96913479 -64.84078773 152.93174625 C-82.59130875 152.89364707 -100.34176794 152.87430003 -118.09233075 152.87399811 C-128.05474655 152.87341391 -138.01701363 152.86494625 -147.9793911 152.83600044 C-156.4626738 152.81146508 -164.94575354 152.80421826 -173.42906215 152.81924797 C-177.75469015 152.82640796 -182.07991754 152.82559893 -186.40550041 152.80283737 C-190.37154322 152.78216829 -194.33687944 152.78492082 -198.30291525 152.80571222 C-199.73158298 152.80919204 -201.16030252 152.8043614 -202.58890238 152.79000778 C-217.82946869 152.6468465 -230.48279792 157.59999266 -240.20703125 169.5703125 Z " fill="#000000" transform="translate(271.51953125,46.57421875)"/>
<path d="M0 0 C1.92131241 0.00022659 1.92131241 0.00022659 3.88143921 0.00045776 C5.2642228 0.01066869 6.64700478 0.02110064 8.02978516 0.03173828 C9.45610353 0.03547243 10.88242448 0.0383175 12.30874634 0.04031372 C16.04717192 0.0479186 19.78543999 0.0675397 23.52380371 0.08972168 C27.34478627 0.11024821 31.1657945 0.11932994 34.98681641 0.12939453 C42.47256499 0.15078887 49.95818418 0.18488638 57.44384766 0.22705078 C57.57847412 1.72594849 57.57847412 1.72594849 57.71582031 3.25512695 C63.89522536 70.96889641 85.17031877 133.37591491 130.44384766 185.22705078 C131.08193359 185.96568359 131.72001953 186.70431641 132.37744141 187.46533203 C134.05385472 189.39727255 135.74519973 191.31464042 137.44384766 193.22705078 C138.50539062 194.4278125 138.50539062 194.4278125 139.58837891 195.65283203 C146.77188917 203.71745429 154.22935757 211.21810019 162.44384766 218.22705078 C163.34361328 219.01595703 164.24337891 219.80486328 165.17041016 220.61767578 C180.7674373 234.19563745 197.64663755 245.73631881 215.44384766 256.22705078 C216.21051758 256.68063965 216.9771875 257.13422852 217.76708984 257.6015625 C235.57989474 268.05148152 254.27420447 276.04726896 273.69750977 283.00439453 C274.79329346 283.39755859 275.88907715 283.79072266 277.01806641 284.19580078 C277.99348389 284.540625 278.96890137 284.88544922 279.97387695 285.24072266 C282.44384766 286.22705078 282.44384766 286.22705078 285.44384766 288.22705078 C248.95862438 288.29576708 212.47341247 288.34860503 175.98813777 288.38024677 C171.67747585 288.38399874 167.36681407 288.38788172 163.05615234 288.3918457 C162.19800301 288.39263263 161.33985369 288.39341957 160.45569983 288.39423034 C146.57368794 288.40727247 132.69171344 288.43091972 118.80972371 288.45850917 C104.5579517 288.48659661 90.30619923 288.50323409 76.05440068 288.50931627 C67.26534046 288.51342579 58.47638596 288.52638986 49.68735829 288.55080018 C43.65454864 288.56669861 37.62179338 288.57144187 31.58896431 288.56755491 C28.11204776 288.56563973 24.63531551 288.56850666 21.15843201 288.58466721 C17.37897438 288.599656 13.59996421 288.59598063 9.82049561 288.58781433 C8.73485659 288.59655286 7.64921758 288.60529138 6.53068042 288.61429471 C-6.05780384 288.54108657 -17.21328774 285.73109957 -26.77880859 277.25830078 C-35.78810569 267.96272696 -38.70258036 256.88347374 -38.71005249 244.31651306 C-38.71443474 243.41824266 -38.718817 242.51997225 -38.72333205 241.59448153 C-38.7366886 238.58390024 -38.74289186 235.5733482 -38.74902344 232.56274414 C-38.75692692 230.4041633 -38.76519602 228.24558377 -38.77380371 226.08700562 C-38.79999671 218.99698137 -38.81532929 211.90695131 -38.82958984 204.81689453 C-38.83495076 202.37383076 -38.84032828 199.93076702 -38.8457222 197.48770332 C-38.86734749 187.32303218 -38.88608309 177.1583626 -38.89734459 166.99367428 C-38.91357699 152.43921824 -38.94674197 137.88502942 -39.00374544 123.33067411 C-39.04248235 113.09013078 -39.06198178 102.8496588 -39.06726515 92.60904413 C-39.07091359 86.49633589 -39.08288146 80.38391286 -39.11536789 74.2712841 C-39.14551394 68.51658954 -39.15173677 62.76235181 -39.13998413 57.00759506 C-39.13976394 54.90177645 -39.14802336 52.79593622 -39.16563797 50.69019127 C-39.28290247 35.85792943 -38.02379533 23.6696213 -27.55615234 12.22705078 C-20.11143198 4.6769806 -10.70946575 -0.0423299 0 0 Z " fill="#614333" transform="translate(62.55615234375,199.77294921875)"/>
<path d="M0 0 C10.1996127 6.09489052 17.17989438 18.72053092 24.02148438 28.16308594 C26.49571056 31.56547147 28.99812298 34.94657243 31.50268555 38.32666016 C33.27462862 40.72336489 35.0345718 43.12850353 36.79296875 45.53515625 C38.59311134 47.99431374 40.41936767 50.39787175 42.31640625 52.78515625 C46.13860159 57.70709793 47.81370739 61.20247323 47.30859375 67.53125 C46.49780626 71.70420215 44.71877254 73.87733844 41.7890625 76.83984375 C37.90696991 79.35485535 35.07802467 79.18212992 30.5703125 78.97265625 C29.82974609 78.95460938 29.08917969 78.9365625 28.32617188 78.91796875 C26.5111554 78.87112962 24.69681084 78.79939414 22.8828125 78.72265625 C22.86863281 79.44066406 22.85445313 80.15867187 22.83984375 80.8984375 C21.43836872 111.31423332 6.12480315 136.64225108 -15.6796875 157.03515625 C-27.37288894 167.37663663 -27.37288894 167.37663663 -34.91137695 167.17333984 C-39.37310896 166.26173417 -42.63149301 163.25976399 -46.1171875 160.47265625 C-46.93300293 159.84456055 -47.74881836 159.21646484 -48.58935547 158.56933594 C-50.27426914 157.27194261 -51.9537911 155.96751791 -53.62792969 154.65625 C-56.01911471 152.79883676 -58.43714388 150.98697126 -60.875 149.19140625 C-61.61234375 148.64774414 -62.3496875 148.10408203 -63.109375 147.54394531 C-64.50735313 146.51402461 -65.90577494 145.48470582 -67.3046875 144.45605469 C-72.00431837 140.94839451 -72.00431837 140.94839451 -73.1171875 138.72265625 C-73.81154121 131.66339353 -73.81154121 131.66339353 -71.1796875 128.09765625 C-67.29453139 125.08467804 -63.23707083 122.40133497 -59.1171875 119.72265625 C-49.9445819 113.60758585 -44.27750227 102.34906944 -42.1171875 91.72265625 C-41.8973652 89.47558384 -41.71234763 87.22494387 -41.5546875 84.97265625 C-41.47089844 83.8021875 -41.38710938 82.63171875 -41.30078125 81.42578125 C-41.20990234 80.08773437 -41.20990234 80.08773437 -41.1171875 78.72265625 C-42.19097656 78.79226562 -43.26476562 78.861875 -44.37109375 78.93359375 C-57.32948641 79.52019391 -57.32948641 79.52019391 -61.5546875 75.84765625 C-64.58611915 72.57086068 -65.3482566 70.10780386 -65.5546875 65.66015625 C-65.61527344 64.76167969 -65.67585938 63.86320312 -65.73828125 62.9375 C-64.79452072 58.0525005 -62.02474012 54.68539248 -59.1171875 50.72265625 C-58.60631592 50.00907959 -58.09544434 49.29550293 -57.5690918 48.56030273 C-55.9774766 46.35114387 -54.36351902 44.16008857 -52.7421875 41.97265625 C-51.85176758 40.7674231 -51.85176758 40.7674231 -50.94335938 39.5378418 C-44.34479007 30.6343984 -37.62194533 21.82508494 -30.87255859 13.03564453 C-29.714126 11.50922027 -28.57078299 9.97121053 -27.44384766 8.42138672 C-26.92612793 7.70998535 -26.4084082 6.99858398 -25.875 6.265625 C-25.42785645 5.64067139 -24.98071289 5.01571777 -24.52001953 4.37182617 C-18.62282073 -2.5609232 -8.02969658 -3.29036439 0 0 Z " fill="#010100" transform="translate(457.1171875,9.27734375)"/>
<path d="M0 0 C1.03194992 -0.00540298 2.06389984 -0.01080597 3.12712097 -0.01637268 C6.51928889 -0.02882274 9.91060191 -0.01239295 13.30273438 0.00561523 C15.67110234 0.00546016 18.03947056 0.0039698 20.40783691 0.00120544 C25.36396547 -0.00017689 30.31980405 0.01235229 35.27587891 0.03515625 C41.61764387 0.06353991 47.95892725 0.06080111 54.30072784 0.04806614 C59.18902677 0.04109968 64.07721508 0.04890939 68.96549988 0.06132317 C71.30339636 0.06582823 73.64130475 0.06618276 75.97920227 0.06225777 C79.25070396 0.05933614 82.52155006 0.07589883 85.79296875 0.09765625 C86.75216721 0.0931546 87.71136566 0.08865295 88.69963074 0.08401489 C96.25714598 0.16720952 102.80108219 1.51922092 108.64648438 6.68920898 C109.58234375 7.48391602 109.58234375 7.48391602 110.53710938 8.29467773 C115.74620652 14.47774472 117.00822293 20.40509161 116.96289062 28.33764648 C116.9690892 29.2570401 116.97528778 30.17643372 116.98167419 31.12368774 C116.98874118 33.05827788 116.98565325 34.99292923 116.97290039 36.92749023 C116.95905264 39.86224209 116.99313026 42.79378896 117.03125 45.72827148 C117.07787124 56.82211721 116.7104178 65.11270232 109.36914062 73.93920898 C108.73878906 74.45483398 108.1084375 74.97045898 107.45898438 75.50170898 C106.83121094 76.03795898 106.2034375 76.57420898 105.55664062 77.12670898 C99.63801299 80.89408136 93.70449837 80.79853086 86.92822266 80.79223633 C85.88681122 80.79895355 84.84539978 80.80567078 83.77243042 80.81259155 C80.33717042 80.83155587 76.90210593 80.83549488 73.46679688 80.83764648 C71.07314982 80.84407509 68.67950356 80.8508035 66.28585815 80.8578186 C61.27079446 80.86978717 56.25579963 80.87349981 51.24072266 80.87231445 C44.82263822 80.8721112 38.40499626 80.89942229 31.98701668 80.93385887 C27.04383322 80.95612274 22.10075638 80.96015215 17.15752792 80.959095 C14.79170073 80.96145138 12.42587062 80.97027689 10.06009293 80.98575974 C6.74759375 81.00541007 3.43605055 80.99958482 0.12353516 80.98754883 C-0.84815613 80.99878784 -1.81984741 81.01002686 -2.82098389 81.02160645 C-8.87300418 80.96587956 -13.58989294 80.04113043 -18.60351562 76.50170898 C-28.09180217 66.82268402 -27.79805715 51.95180843 -27.85351562 39.31420898 C-27.87414062 38.15856445 -27.89476562 37.00291992 -27.91601562 35.81225586 C-27.96426416 25.07092597 -26.46028489 15.57950891 -20.59179688 6.43920898 C-14.61884548 0.61880841 -8.01594956 -0.08079449 0 0 Z " fill="#614333" transform="translate(371.603515625,303.498291015625)"/>
<path d="M0 0 C6.19302188 3.70957854 10.21450752 9.54440273 12.328125 16.39453125 C12.70957458 19.54822784 12.67966142 22.65528093 12.62109375 25.828125 C12.61684891 26.70606216 12.61260406 27.58399933 12.60823059 28.48854065 C12.5915479 31.27002705 12.55391585 34.05076689 12.515625 36.83203125 C12.50056468 38.72720302 12.48687864 40.62238623 12.47460938 42.51757812 C12.44424212 47.14352288 12.38738572 51.76887861 12.328125 56.39453125 C11.2608316 56.95534393 10.19353821 57.51615662 9.09390259 58.09396362 C7.5516543 58.90484679 6.00945296 59.71581924 4.46728516 60.52685547 C3.6196995 60.97254316 2.77211384 61.41823086 1.89884377 61.87742424 C-2.96202478 64.435465 -7.81862702 67.00125493 -12.66925049 69.57867432 C-25.82544579 76.56696581 -39.01763513 83.47813382 -52.26394081 90.29377937 C-58.93651123 93.72969341 -65.59007813 97.19524234 -72.20751953 100.73632812 C-102.80007863 117.08579596 -129.87670667 131.24079377 -165.671875 125.39453125 C-162.91934115 121.87130242 -160.26259411 119.08563383 -156.734375 116.33203125 C-152.37587246 112.8440685 -148.2415484 109.21407924 -144.171875 105.39453125 C-140.29755314 101.76462817 -136.38283112 98.27701449 -132.234375 94.95703125 C-127.85935528 91.44809986 -123.75166591 87.7360862 -119.671875 83.89453125 C-114.75879385 79.26834535 -109.72065779 74.92182438 -104.44921875 70.703125 C-101.24744701 68.04173667 -98.20952582 65.23990879 -95.171875 62.39453125 C-90.43323357 57.95618219 -85.55067921 53.80310672 -80.484375 49.73828125 C-77.27337695 47.06244954 -74.22158363 44.25094849 -71.171875 41.39453125 C-66.43321036 36.95620451 -61.55068174 32.80310875 -56.484375 28.73828125 C-53.27336794 26.06244204 -50.22168879 23.25084826 -47.171875 20.39453125 C-42.27904939 15.81470736 -37.2707826 11.48983329 -32.0390625 7.296875 C-30.10521483 5.7427763 -28.22757146 4.15057324 -26.359375 2.51953125 C-18.00034192 -4.08993677 -9.60880565 -4.27561635 0 0 Z " fill="#43BB58" transform="translate(259.671875,58.60546875)"/>
<path d="M0 0 C5.51823659 3.38619063 8.97563976 8.92691928 11 15 C11 32.82 11 50.64 11 69 C-46.09 69 -103.18 69 -162 69 C-158.75508685 66.56631514 -155.96235451 64.85657675 -152.37608337 63.06442261 C-150.65785118 62.20216064 -150.65785118 62.20216064 -148.90490723 61.32247925 C-147.63968697 60.69261057 -146.37442685 60.06282199 -145.10913086 59.43310547 C-143.77335498 58.76468085 -142.4377524 58.09590983 -141.10231018 57.42681885 C-137.48031886 55.61340205 -133.85585053 53.80498864 -130.23086238 51.99757147 C-126.43795815 50.10551371 -122.64716542 48.20923444 -118.85609436 46.31350708 C-112.49127975 43.13156785 -106.12492436 39.95272925 -99.75756836 36.77587891 C-92.39284785 33.10138653 -85.03023045 29.4227088 -77.66880125 25.74162757 C-70.58871796 22.20128093 -63.50749494 18.66322057 -56.42563057 15.12643814 C-53.41063134 13.62070506 -50.39597365 12.11429132 -47.38157463 10.60735703 C-43.83423897 8.83419091 -40.28589171 7.06306557 -36.73674583 5.2935257 C-35.43309746 4.64316363 -34.12978787 3.99212197 -32.82683945 3.34035873 C-31.05112843 2.45225836 -29.2740666 1.56686036 -27.49693298 0.68161011 C-26.00450781 -0.06334559 -26.00450781 -0.06334559 -24.48193264 -0.82335091 C-16.42643843 -4.64234656 -7.95979853 -3.65549396 0 0 Z " fill="#2C9638" transform="translate(333,115)"/>
<path d="M0 0 C3.07284601 0.32118156 4.62646315 0.63811948 6.87768555 2.8190918 C7.74840698 3.99725464 7.74840698 3.99725464 8.63671875 5.19921875 C9.2915625 6.0720752 9.94640625 6.94493164 10.62109375 7.84423828 C11.64396484 9.25165283 11.64396484 9.25165283 12.6875 10.6875 C13.39648438 11.64124512 14.10546875 12.59499023 14.8359375 13.57763672 C16.90702871 16.37351554 18.95772938 19.18302151 21 22 C21.52416504 22.72171387 22.04833008 23.44342773 22.58837891 24.18701172 C24.67963395 27.07625525 26.75246449 29.97744599 28.8046875 32.89453125 C31.68299611 36.96615998 34.63890901 40.97757445 37.6015625 44.98828125 C39 47 39 47 39 48 C37.33710938 48.03867188 37.33710938 48.03867188 35.640625 48.078125 C34.17704453 48.13441656 32.71350438 48.19176367 31.25 48.25 C30.52039063 48.26417969 29.79078125 48.27835938 29.0390625 48.29296875 C25.66349263 48.44640374 23.36444896 48.76104526 20.515625 50.62890625 C18.50070466 53.7811141 18.5322575 55.95772641 18.5 59.6875 C17.63445144 84.3237453 7.06406108 106.48130141 -10 124 C-10.71542969 124.76570313 -11.43085938 125.53140625 -12.16796875 126.3203125 C-18.23907128 132.67617594 -18.23907128 132.67617594 -23 134 C-25.12817383 133.03369141 -25.12817383 133.03369141 -27.20703125 131.3515625 C-27.95791016 130.75859375 -28.70878906 130.165625 -29.48242188 129.5546875 C-30.25134766 128.91789063 -31.02027344 128.28109375 -31.8125 127.625 C-32.99489258 126.68140625 -32.99489258 126.68140625 -34.20117188 125.71875 C-36.14771083 124.16151883 -38.07915184 122.58872854 -40 121 C-35.38844274 116.34916201 -35.38844274 116.34916201 -33.26171875 114.4375 C-24.71910616 106.63680165 -19.15572063 96.02841316 -16 85 C-15.77570313 84.2265625 -15.55140625 83.453125 -15.3203125 82.65625 C-12.76121345 72.13940461 -13.03669094 60.37158169 -16 50 C-19.84841348 48.81968762 -23.758279 48.66764649 -27.75 48.4375 C-28.79607422 48.37272461 -28.79607422 48.37272461 -29.86328125 48.30664062 C-31.57531922 48.20110404 -33.28763561 48.1001009 -35 48 C-33.65283182 45.13746643 -32.12226944 42.65713196 -30.234375 40.12109375 C-29.68064209 39.3736792 -29.12690918 38.62626465 -28.55639648 37.85620117 C-27.96028564 37.05802979 -27.3641748 36.2598584 -26.75 35.4375 C-25.4855184 33.73449281 -24.22120038 32.03136415 -22.95703125 30.328125 C-22.30557129 29.45220703 -21.65411133 28.57628906 -20.98291016 27.67382812 C-19.02512182 25.03387517 -17.07881724 22.38588648 -15.13671875 19.734375 C-14.51635742 18.88818604 -13.89599609 18.04199707 -13.25683594 17.17016602 C-12.07272221 15.55432429 -10.88972049 13.93766687 -9.70800781 12.32006836 C-6.60096175 8.08950046 -3.40836814 3.99229713 0 0 Z " fill="#FDD35C" transform="translate(446,24)"/>
<path d="M0 0 C6.31402599 4.4892277 11.8946353 11.71801442 13.3125 19.4375 C14.20657597 29.85182936 12.23751752 38.84437212 6.1015625 47.3984375 C-0.02961272 54.38637083 -8.36373775 57.71299541 -17.44921875 58.75390625 C-26.61949028 59.1503894 -33.70969311 55.89525754 -40.83203125 50.265625 C-47.93308539 43.26921798 -50.63205347 34.68504696 -51.0625 25 C-50.86882644 16.23627125 -46.67605604 8.71689099 -40.6875 2.4375 C-28.21792185 -7.6590525 -13.76318937 -8.22065287 0 0 Z " fill="#010101" transform="translate(410.6875,317.5625)"/>
<path d="M0 0 C5.28 0 10.56 0 16 0 C19.61321975 14.45287901 16.27048585 29.6548311 8.81640625 42.33984375 C2.670262 51.34097114 -4.50709733 57.71212836 -14 63 C-12.85340418 66.43978746 -11.99480386 67.00738405 -9.125 69.0625 C-8.42632812 69.56910156 -7.72765625 70.07570313 -7.0078125 70.59765625 C-5.35332115 71.75322511 -3.67915109 72.88056594 -2 74 C-3.65 75.32 -5.3 76.64 -7 78 C-9.77438124 76.68779266 -12.20790172 75.22517631 -14.671875 73.3984375 C-15.33574219 72.90859375 -15.99960937 72.41875 -16.68359375 71.9140625 C-17.70646484 71.15222656 -17.70646484 71.15222656 -18.75 70.375 C-19.44738281 69.859375 -20.14476562 69.34375 -20.86328125 68.8125 C-22.57755267 67.54440881 -24.28905156 66.2725711 -26 65 C-21.38844274 60.34916201 -21.38844274 60.34916201 -19.26171875 58.4375 C-10.71302375 50.63124749 -5.17034494 40.02946317 -2 29 C-1.77570313 28.26136719 -1.55140625 27.52273437 -1.3203125 26.76171875 C0.86917961 18.07873292 0.16416922 8.88337873 0 0 Z " fill="#FCBF38" transform="translate(432,80)"/>
<path d="M0 0 C5.67476113 1.96434039 9.31400331 5.62800662 12 11 C12.54360446 15.95482094 12.56437074 19.87125852 10.3125 24.375 C6.72054254 28.45235712 3.52833982 31.59004052 -2.05078125 32.23828125 C-7.58896758 32.42001793 -10.64755155 31.74513006 -15 28 C-19.3022759 23.23261319 -20.36282503 19.56252705 -20.28125 13.28125 C-19.69180611 8.50020514 -16.85179203 5.75038822 -13.375 2.6875 C-8.92314854 -0.47565762 -5.3540278 -0.48837416 0 0 Z " fill="#ECECEC" transform="translate(396,328)"/>
<path d="M0 0 C2.25 0.125 2.25 0.125 5 1 C6.39285392 2.95901397 7.73237744 4.95771921 9 7 C7.57715954 8.93099777 6.15431368 10.86199155 4.73144531 12.79296875 C3.48330979 14.48691385 2.23526439 16.18092537 0.98730469 17.875 C-2.3318912 22.38045488 -5.65259036 26.8847862 -8.9765625 31.38671875 C-9.60933105 32.24418701 -10.24209961 33.10165527 -10.89404297 33.98510742 C-12.11387039 35.6380201 -13.33423214 37.29053861 -14.55517578 38.94262695 C-15.10931152 39.69374756 -15.66344727 40.44486816 -16.234375 41.21875 C-16.72131836 41.87810547 -17.20826172 42.53746094 -17.70996094 43.21679688 C-18.84422897 44.78467986 -19.92656969 46.38985454 -21 48 C-24.2578125 48.29296875 -24.2578125 48.29296875 -28.125 48.1875 C-30.04699219 48.14689453 -30.04699219 48.14689453 -32.0078125 48.10546875 C-32.99523437 48.07066406 -33.98265625 48.03585938 -35 48 C-33.65283182 45.13746643 -32.12226944 42.65713196 -30.234375 40.12109375 C-29.68064209 39.3736792 -29.12690918 38.62626465 -28.55639648 37.85620117 C-27.96028564 37.05802979 -27.3641748 36.2598584 -26.75 35.4375 C-25.4855184 33.73449281 -24.22120038 32.03136415 -22.95703125 30.328125 C-22.30557129 29.45220703 -21.65411133 28.57628906 -20.98291016 27.67382812 C-19.02512182 25.03387517 -17.07881724 22.38588648 -15.13671875 19.734375 C-14.51635742 18.88818604 -13.89599609 18.04199707 -13.25683594 17.17016602 C-12.07272221 15.55432429 -10.88972049 13.93766687 -9.70800781 12.32006836 C-6.60096175 8.08950046 -3.40836814 3.99229713 0 0 Z " fill="#FBBF38" transform="translate(446,24)"/>
</svg>
